<?xml version="1.0" encoding="UTF-8" standalone="no"?>
<!-- Created with Inkscape (http://www.inkscape.org/) -->

<svg
   xmlns:dc="http://purl.org/dc/elements/1.1/"
   xmlns:cc="http://creativecommons.org/ns#"
   xmlns:rdf="http://www.w3.org/1999/02/22-rdf-syntax-ns#"
   xmlns:svg="http://www.w3.org/2000/svg"
   xmlns="http://www.w3.org/2000/svg"
   xmlns:sodipodi="http://sodipodi.sourceforge.net/DTD/sodipodi-0.dtd"
   xmlns:inkscape="http://www.inkscape.org/namespaces/inkscape"
   version="1.1"
   id="svg2"
   width="420"
   height="380"
   viewBox="0 0 420 380"
   sodipodi:docname="logo.svg"
   inkscape:version="0.92.4 (5da689c313, 2019-01-14)">
  <metadata
     id="metadata8">
    <rdf:RDF>
      <cc:Work
         rdf:about="">
        <dc:format>image/svg+xml</dc:format>
        <dc:type
           rdf:resource="http://purl.org/dc/dcmitype/StillImage" />
        <dc:title></dc:title>
      </cc:Work>
    </rdf:RDF>
  </metadata>
  <defs
     id="defs6" />
  <sodipodi:namedview
     pagecolor="#ffffff"
     bordercolor="#666666"
     borderopacity="1"
     objecttolerance="10"
     gridtolerance="10"
     guidetolerance="10"
     inkscape:pageopacity="0"
     inkscape:pageshadow="2"
     inkscape:window-width="1360"
     inkscape:window-height="705"
     id="namedview4"
     showgrid="false"
     inkscape:zoom="0.87830105"
     inkscape:cx="20.659138"
     inkscape:cy="139.82237"
     inkscape:window-x="-8"
     inkscape:window-y="-8"
     inkscape:window-maximized="1"
     inkscape:current-layer="svg2" />
  <g
     id="g3715"
     inkscape:transform-center-x="-220.59322"
     inkscape:transform-center-y="-14.491525">
    <path
       style="fill:#faf9f7"
       d="M 0,190 V 0 H 210 420 V 190 380 H 210 0 Z"
       id="path3725"
       inkscape:connector-curvature="0" />
    <path
       style="fill:#f18d70"
       d="m 324.49142,361.13502 c -11.42899,-5.19208 -15.73508,-20.73733 -9.3805,-33.86414 3.17214,-6.55278 7.82787,-9.60852 15.37138,-10.08886 8.59101,-0.54703 14.60192,2.10258 17.45441,7.69391 2.47909,4.85943 2.69915,9.66609 0.4815,10.51708 -0.86998,0.33385 -3.36794,0.60699 -5.55102,0.60699 -3.58319,0 -4.11001,-0.33691 -5.41657,-3.46393 -1.70231,-4.07421 -4.12306,-5.6126 -7.07542,-4.49644 -4.15274,1.56997 -5.85415,13.48499 -2.92623,20.49249 1.25669,3.00768 1.90711,3.46788 4.90123,3.46788 2.88542,0 3.79131,-0.57467 5.5173,-3.5 2.02768,-3.43666 3.12686,-3.9137 8.1325,-3.5295 4.13596,0.31746 5.40878,2.26084 4.09264,6.24879 -3.20074,9.69835 -15.55059,14.48163 -25.60122,9.91573 z m -157.13759,-0.12777 c -1.35342,-0.54611 -2.73952,-2.64665 -3.75249,-5.68662 -2.33015,-6.99287 -5.33054,-11.51867 -7.3781,-11.12915 -1.40755,0.26777 -1.81484,1.79164 -2.22324,8.31817 L 153.5,360.5 h -5.5 -5.5 l -0.27066,-20.87264 c -0.18871,-14.5525 0.0755,-21.2897 0.87244,-22.25 1.39286,-1.67829 17.03518,-1.87126 23.89822,-0.29481 11.31305,2.59861 15.26588,14.81162 7.43826,22.98189 l -2.51125,2.62118 3.2383,8.27304 c 3.13849,8.01805 3.17996,8.3157 1.34537,9.65719 -2.10925,1.54232 -5.90266,1.70446 -9.15685,0.3914 z m -3.21461,-27.9446 c 1.91621,-1.57252 2.15402,-2.2787 1.26282,-3.75 -1.53108,-2.52769 -7.82939,-4.0328 -9.85184,-2.35431 -1.55439,1.29003 -2.13361,6.12492 -0.88353,7.37499 1.3763,1.37631 7.19878,0.59526 9.47255,-1.27068 z m 17.9637,28.02212 c -1.99629,-1.26401 -1.14262,-5.27621 5.45171,-25.62295 4.18225,-12.90428 6.21126,-17.80135 7.70744,-18.60207 2.64552,-1.41585 10.81474,-0.47802 12.17712,1.39793 0.58344,0.80338 3.70628,10.29561 6.93963,21.09383 C 220.92815,361.22389 220.91097,362 213.87756,362 209.82239,362 206,359.34244 206,356.52305 c 0,-2.30754 -4.49759,-4.69495 -8.17923,-4.34169 -2.65115,0.25439 -3.67204,1.0244 -5.0628,3.81864 -2.73662,5.4983 -6.87952,7.47536 -10.65505,5.08477 z m 18.54857,-19.13626 c 1.1577,-1.1577 0.62436,-5.65999 -0.77276,-6.52346 -0.48536,-0.29997 -1.35,0.68428 -1.92142,2.18722 -1.5956,4.19676 0.10177,6.92865 2.69418,4.33624 z m 29.44217,18.74505 c -4.10353,-1.43785 -6.9089,-4.9793 -8.13619,-10.27095 -1.41673,-6.10852 -1.19815,-29.73619 0.29253,-31.62008 1.90185,-2.40353 7.86455,-3.11102 10.52347,-1.24864 2.13136,1.49286 2.22653,2.19161 2.22653,16.34783 0,13.05668 0.21414,14.98209 1.82874,16.44329 1.00581,0.91025 2.97571,1.65499 4.37756,1.65499 4.62716,0 5.26015,-2.07202 5.62109,-18.39983 0.37473,-16.95153 0.68106,-17.6916 6.90285,-16.67704 l 3.76976,0.61472 v 17.58408 c 0,19.75714 -0.4142,21.3375 -6.48688,24.75054 -4.3454,2.44225 -15.08927,2.86395 -20.91946,0.82109 z m 34.36486,0.0589 c -0.27525,-0.7173 -0.37852,-10.74256 -0.22949,-22.27835 L 264.5,317.5 l 3.38837,-0.32368 c 1.86361,-0.17802 4.43999,-0.0597 5.72529,0.26285 2.31451,0.58091 2.33955,0.74222 2.61163,16.82368 L 276.5,350.5 l 7.20311,0.5 c 3.96171,0.275 7.70491,1.0032 8.31822,1.61822 0.61331,0.61502 0.97191,2.86502 0.79689,5 L 292.5,361.5 l -13.7705,0.27835 c -10.60157,0.2143 -13.88568,-0.0218 -14.27098,-1.02584 z m 32.00933,0.0243 C 296.18746,360.04609 296.08,350.0099 296.22903,338.47411 L 296.5,317.5 l 4.58759,-0.29816 c 3.05591,-0.19861 4.98258,0.17779 5.77066,1.12736 0.8475,1.02117 1.1063,7.346 0.91241,22.29816 L 307.5,361.5 l -5.26118,0.30265 c -3.67777,0.21156 -5.41461,-0.0972 -5.77097,-1.02584 z M 351,359.87604 c 0,-3.78961 11.01283,-39.23273 12.80599,-41.21416 1.36195,-1.50494 2.71914,-1.78306 6.97761,-1.42992 2.90773,0.24113 5.68612,0.85009 6.1742,1.35323 1.14483,1.18018 12.21433,35.89073 12.8089,40.16481 l 0.45211,3.25 h -6.00082 -6.00083 l -1.55647,-3.88999 c -1.39598,-3.48891 -1.97119,-3.92955 -5.57868,-4.27358 -5.46443,-0.52112 -6.8165,0.11805 -8.844,4.18086 -1.57383,3.15373 -2.1867,3.5115 -6.48801,3.7875 -4.33986,0.27848 -4.75,0.11194 -4.75,-1.92875 z m 20.45369,-16.8011 c 0.77985,-1.26183 -1.53415,-6.14325 -2.59992,-5.48457 -1.00947,0.62389 -1.14504,4.78503 -0.1871,5.74296 0.93765,0.93765 2.1153,0.82847 2.78702,-0.25839 z M 40.149099,359.67965 c -0.769276,-0.92692 -0.880254,-7.5568 -0.372445,-22.25 L 40.5,316.5 l 4.385864,-0.31414 c 2.412224,-0.17277 4.844806,0.14481 5.405735,0.70574 0.56093,0.56093 0.938092,3.52251 0.838139,6.5813 C 50.881687,331.0638 52.074703,333 57,333 c 4.787938,0 6,-1.78829 6,-8.85247 0,-7.31188 0.552087,-8.14998 5.356989,-8.13222 7.229906,0.0267 7.03188,-0.69233 6.223309,22.5977 -0.397319,11.44434 -0.941983,21.16319 -1.210365,21.59744 C 73.101551,360.6447 70.899356,361 68.476167,361 62.968622,361 62,359.45538 62,350.67273 62,343.71456 61.452234,343 56.118213,343 52.031698,343 51,344.73929 51,351.62857 c 0,4.32901 -0.479249,6.70782 -1.571429,7.8 -1.911402,1.9114 -7.769969,2.06992 -9.279472,0.25108 z m 41.562489,0.6986 c -1.141196,-1.14119 -0.842919,-40.26434 0.323596,-42.44399 1.246844,-2.32975 9.042851,-2.75009 10.840156,-0.58447 0.801861,0.96619 0.907709,7.28963 0.372445,22.25 L 92.5,360.5 l -5.038412,0.29492 c -2.771126,0.16221 -5.358626,-0.0253 -5.75,-0.41667 z m 18.837952,-0.2981 c -1.172225,-1.89669 -0.614328,-41.29716 0.60556,-42.76704 1.35826,-1.63659 12.67184,-1.75804 19.87452,-0.21334 9.69727,2.0797 15.97038,10.53252 15.97038,21.51961 0,7.9307 -3.64439,15.45514 -9.29748,19.19618 -3.67446,2.43164 -5.09453,2.71436 -15.25379,3.03686 -7.59039,0.24095 -11.42687,-0.008 -11.89919,-0.77227 z m 20.35966,-11.4835 c 2.69452,-2.86819 4.13925,-8.52323 3.37719,-13.21925 -0.67246,-4.14393 -6.43844,-9.63964 -9.63559,-9.18395 -2.03073,0.28944 -2.16675,0.91707 -2.43652,11.24228 -0.15714,6.01466 -0.0588,11.52716 0.21862,12.25 0.84298,2.19678 6.01351,1.53244 8.4763,-1.08908 z M 256.5,295.01991 c -5.94169,-0.51486 -6.00882,-0.55562 -6.90797,-4.1946 -1.398,-5.65793 0.29718,-12.07504 3.40797,-12.90089 1.375,-0.36503 25.45,-0.43479 53.5,-0.15502 45.0994,0.44983 51.43382,0.32497 54.74961,-1.07917 6.0451,-2.55993 10.23106,-6.32005 13.28755,-11.93585 l 2.85974,-5.25427 -0.1914,-37.00006 c -0.18101,-34.98925 -0.42502,-50.84678 -1.76863,-114.93512 -0.60839,-29.01976 -1.01021,-31.396349 -6.23992,-36.906513 -3.20538,-3.377283 -8.39329,-6.179044 -14.35811,-7.754187 -2.79807,-0.738893 -21.86168,-1.376114 -53.68366,-1.794431 -47.61968,-0.625986 -49.39672,-0.717906 -50.82931,-2.629231 -1.5163,-2.023011 -1.46695,-11.672822 0.0675,-13.207314 1.04596,-1.04596 100.11868,-0.281626 106.10659,0.8186 14.67767,2.696895 29.38471,15.496505 33.79063,29.408146 1.65007,5.210109 1.98227,16.355688 3.21892,108 0.2746,20.35 0.76836,45.84132 1.09725,56.64738 0.56528,18.57337 0.47354,20.04163 -1.67825,26.85961 -3.90565,12.37513 -15.75484,23.05678 -29.92855,26.9796 -7.16626,1.98339 -9.56916,2.06413 -54,1.81449 -25.575,-0.1437 -49.2,-0.49523 -52.5,-0.78117 z m -173,-1.01974 c -10.45,-0.3772 -19.9,-1.04703 -21,-1.48852 C 50.804946,287.81777 45.431928,283.69519 39.018172,274.49467 32.009199,264.44032 31.748369,263.09288 31.856938,237.5 31.98511,207.28608 33.873375,94.994121 34.445192,83.580786 c 0.371821,-7.421436 0.972449,-9.986834 3.576719,-15.276858 3.781885,-7.6821 9.841734,-14.972014 15.087687,-18.150278 2.130051,-1.290492 7.139275,-3.454589 11.131611,-4.809103 L 71.5,42.881793 l 42.87537,0.211936 c 49.97876,0.247048 61.29759,0.774134 62.65277,2.917563 1.45366,2.299185 1.16897,10.58023 -0.40874,11.889614 -1.00248,0.831982 -15.81222,1.118135 -54.07328,1.044798 L 69.853433,58.844706 64.332179,62.172353 C 57.321244,66.397827 52.381727,71.827603 51.122316,76.693325 50.580404,78.786996 49.881695,96.925 49.569629,117 c -1.064501,68.47884 -2.55115,127.1544 -3.250447,128.28983 -0.839318,1.36277 1.802003,15.08976 3.407756,17.71017 2.779176,4.5353 6.703087,8.14931 11.773062,10.84325 l 5,2.65675 53.95648,0.29891 c 36.54288,0.20245 54.37394,0.64538 55.25,1.37245 1.66773,1.3841 1.77848,14.41089 0.13116,15.42898 -1.56467,0.96702 -68.5842,1.25722 -92.33764,0.39983 z m 201.85356,-54.22318 c -0.43882,-0.70234 -1.03538,-10.81081 -1.3257,-22.46326 L 283.5,196.12745 l -2.89289,-3.01759 c -4.99077,-5.2059 -8.82624,-6.36138 -24.01871,-7.2359 -9.51362,-0.54763 -14.1842,-1.2091 -14.74171,-2.08778 -0.44884,-0.7074 -0.82296,-6.51858 -0.83138,-12.91374 -0.0187,-14.22208 0.11663,-14.40247 10.51672,-14.01516 8.19595,0.30524 22.34775,-1.49128 26.97396,-3.42423 5.44939,-2.2769 6.92678,-4.87143 7.3309,-12.87418 0.47098,-9.32662 -1.14183,-12.66622 -7.72893,-16.00416 -4.62197,-2.34213 -5.82477,-2.46953 -26.01233,-2.75519 -17.93037,-0.25373 -21.32056,-0.0702 -22.17545,1.20048 -0.65794,0.97794 -0.90667,21.02362 -0.71467,57.59611 0.24358,46.3987 0.0572,56.38201 -1.07795,57.75 -1.14518,1.38001 -3.48021,1.65389 -14.10078,1.65389 -7.00058,0 -14.06396,-0.4656 -15.6964,-1.03467 -3.16913,-1.10477 -6.72898,-6.08989 -20.32696,-28.46533 -4.01095,-6.6 -9.64824,-15.6 -12.52732,-20 -2.87907,-4.4 -8.7093,-14.075 -12.95606,-21.5 -9.79755,-17.12998 -12.48908,-20.80671 -13.67722,-18.68362 -0.47936,0.85657 -1.06308,20.74464 -1.29716,44.19572 -0.30733,30.78862 -0.75423,43.03429 -1.60808,44.06311 -0.89072,1.07326 -3.86623,1.42479 -12.06002,1.42479 -16.58438,0 -14.96863,6.7871 -14.3421,-60.24517 0.56652,-60.612 1.15151,-79.62867 2.51769,-81.843701 0.64595,-1.047306 3.81706,-1.49708 12.29951,-1.7445 11.37986,-0.331932 11.442,-0.321147 14.40324,2.5 1.63574,1.558351 6.47576,8.458371 10.7556,15.333371 4.27984,6.875 10.35838,16.55 13.50787,21.5 20.15602,31.67895 24.67862,38.72707 28.83631,44.93916 2.55438,3.81655 5.19328,7.11203 5.86423,7.32331 0.94452,0.29742 1.28314,-9.66689 1.5,-44.13994 0.18852,-29.96848 0.63034,-44.874082 1.35147,-45.594691 1.53292,-1.531799 65.59078,-1.536661 76.52115,-0.0058 18.15904,2.543271 27.70804,7.434591 34.56743,17.706611 5.34754,8.00801 6.68259,13.22355 6.16359,24.07889 -0.51775,10.82914 -3.17928,16.92963 -11.30216,25.9057 -3.03676,3.35574 -5.52139,6.63944 -5.52139,7.29712 0,0.65769 2.00462,3.42541 4.45472,6.15051 2.45009,2.72509 5.65172,7.48498 7.11473,10.57752 2.50957,5.3048 2.68686,6.67305 3.13471,24.19222 0.26108,10.21317 0.0774,20.3694 -0.40828,22.5694 l -0.88297,4 -14.13076,0.27699 c -10.62594,0.2083 -14.32864,-0.0397 -14.92859,-1 z"
       id="path3723"
       inkscape:connector-curvature="0" />
    <path
       style="fill:#69a19a"
       d="m 324.49142,361.13502 c -11.42899,-5.19208 -15.73508,-20.73733 -9.3805,-33.86414 3.17214,-6.55278 7.82787,-9.60852 15.37138,-10.08886 8.59101,-0.54703 14.60192,2.10258 17.45441,7.69391 2.47909,4.85943 2.69915,9.66609 0.4815,10.51708 -0.86998,0.33385 -3.36794,0.60699 -5.55102,0.60699 -3.58319,0 -4.11001,-0.33691 -5.41657,-3.46393 -1.70231,-4.07421 -4.12306,-5.6126 -7.07542,-4.49644 -4.15274,1.56997 -5.85415,13.48499 -2.92623,20.49249 1.25669,3.00768 1.90711,3.46788 4.90123,3.46788 2.88542,0 3.79131,-0.57467 5.5173,-3.5 2.02768,-3.43666 3.12686,-3.9137 8.1325,-3.5295 4.13596,0.31746 5.40878,2.26084 4.09264,6.24879 -3.20074,9.69835 -15.55059,14.48163 -25.60122,9.91573 z m -157.13759,-0.12777 c -1.35342,-0.54611 -2.73952,-2.64665 -3.75249,-5.68662 -2.33015,-6.99287 -5.33054,-11.51867 -7.3781,-11.12915 -1.40755,0.26777 -1.81484,1.79164 -2.22324,8.31817 L 153.5,360.5 h -5.5 -5.5 l -0.27066,-20.87264 c -0.18871,-14.5525 0.0755,-21.2897 0.87244,-22.25 1.39286,-1.67829 17.03518,-1.87126 23.89822,-0.29481 11.31305,2.59861 15.26588,14.81162 7.43826,22.98189 l -2.51125,2.62118 3.2383,8.27304 c 3.13849,8.01805 3.17996,8.3157 1.34537,9.65719 -2.10925,1.54232 -5.90266,1.70446 -9.15685,0.3914 z m -3.21461,-27.9446 c 1.91621,-1.57252 2.15402,-2.2787 1.26282,-3.75 -1.53108,-2.52769 -7.82939,-4.0328 -9.85184,-2.35431 -1.55439,1.29003 -2.13361,6.12492 -0.88353,7.37499 1.3763,1.37631 7.19878,0.59526 9.47255,-1.27068 z m 17.9637,28.02212 c -1.99629,-1.26401 -1.14262,-5.27621 5.45171,-25.62295 4.18225,-12.90428 6.21126,-17.80135 7.70744,-18.60207 2.64552,-1.41585 10.81474,-0.47802 12.17712,1.39793 0.58344,0.80338 3.70628,10.29561 6.93963,21.09383 C 220.92815,361.22389 220.91097,362 213.87756,362 209.82239,362 206,359.34244 206,356.52305 c 0,-2.30754 -4.49759,-4.69495 -8.17923,-4.34169 -2.65115,0.25439 -3.67204,1.0244 -5.0628,3.81864 -2.73662,5.4983 -6.87952,7.47536 -10.65505,5.08477 z m 18.54857,-19.13626 c 1.1577,-1.1577 0.62436,-5.65999 -0.77276,-6.52346 -0.48536,-0.29997 -1.35,0.68428 -1.92142,2.18722 -1.5956,4.19676 0.10177,6.92865 2.69418,4.33624 z m 29.44217,18.74505 c -4.10353,-1.43785 -6.9089,-4.9793 -8.13619,-10.27095 -1.41673,-6.10852 -1.19815,-29.73619 0.29253,-31.62008 1.90185,-2.40353 7.86455,-3.11102 10.52347,-1.24864 2.13136,1.49286 2.22653,2.19161 2.22653,16.34783 0,13.05668 0.21414,14.98209 1.82874,16.44329 1.00581,0.91025 2.97571,1.65499 4.37756,1.65499 4.62716,0 5.26015,-2.07202 5.62109,-18.39983 0.37473,-16.95153 0.68106,-17.6916 6.90285,-16.67704 l 3.76976,0.61472 v 17.58408 c 0,19.75714 -0.4142,21.3375 -6.48688,24.75054 -4.3454,2.44225 -15.08927,2.86395 -20.91946,0.82109 z m 34.36486,0.0589 c -0.27525,-0.7173 -0.37852,-10.74256 -0.22949,-22.27835 L 264.5,317.5 l 3.38837,-0.32368 c 1.86361,-0.17802 4.43999,-0.0597 5.72529,0.26285 2.31451,0.58091 2.33955,0.74222 2.61163,16.82368 L 276.5,350.5 l 7.20311,0.5 c 3.96171,0.275 7.70491,1.0032 8.31822,1.61822 0.61331,0.61502 0.97191,2.86502 0.79689,5 L 292.5,361.5 l -13.7705,0.27835 c -10.60157,0.2143 -13.88568,-0.0218 -14.27098,-1.02584 z m 32.00933,0.0243 C 296.18746,360.04609 296.08,350.0099 296.22903,338.47411 L 296.5,317.5 l 4.58759,-0.29816 c 3.05591,-0.19861 4.98258,0.17779 5.77066,1.12736 0.8475,1.02117 1.1063,7.346 0.91241,22.29816 L 307.5,361.5 l -5.26118,0.30265 c -3.67777,0.21156 -5.41461,-0.0972 -5.77097,-1.02584 z M 351,359.87604 c 0,-3.78961 11.01283,-39.23273 12.80599,-41.21416 1.36195,-1.50494 2.71914,-1.78306 6.97761,-1.42992 2.90773,0.24113 5.68612,0.85009 6.1742,1.35323 1.14483,1.18018 12.21433,35.89073 12.8089,40.16481 l 0.45211,3.25 h -6.00082 -6.00083 l -1.55647,-3.88999 c -1.39598,-3.48891 -1.97119,-3.92955 -5.57868,-4.27358 -5.46443,-0.52112 -6.8165,0.11805 -8.844,4.18086 -1.57383,3.15373 -2.1867,3.5115 -6.48801,3.7875 -4.33986,0.27848 -4.75,0.11194 -4.75,-1.92875 z m 20.45369,-16.8011 c 0.77985,-1.26183 -1.53415,-6.14325 -2.59992,-5.48457 -1.00947,0.62389 -1.14504,4.78503 -0.1871,5.74296 0.93765,0.93765 2.1153,0.82847 2.78702,-0.25839 z M 40.149099,359.67965 c -0.769276,-0.92692 -0.880254,-7.5568 -0.372445,-22.25 L 40.5,316.5 l 4.385864,-0.31414 c 2.412224,-0.17277 4.844806,0.14481 5.405735,0.70574 0.56093,0.56093 0.938092,3.52251 0.838139,6.5813 C 50.881687,331.0638 52.074703,333 57,333 c 4.787938,0 6,-1.78829 6,-8.85247 0,-7.31188 0.552087,-8.14998 5.356989,-8.13222 7.229906,0.0267 7.03188,-0.69233 6.223309,22.5977 -0.397319,11.44434 -0.941983,21.16319 -1.210365,21.59744 C 73.101551,360.6447 70.899356,361 68.476167,361 62.968622,361 62,359.45538 62,350.67273 62,343.71456 61.452234,343 56.118213,343 52.031698,343 51,344.73929 51,351.62857 c 0,4.32901 -0.479249,6.70782 -1.571429,7.8 -1.911402,1.9114 -7.769969,2.06992 -9.279472,0.25108 z m 41.562489,0.6986 c -1.141196,-1.14119 -0.842919,-40.26434 0.323596,-42.44399 1.246844,-2.32975 9.042851,-2.75009 10.840156,-0.58447 0.801861,0.96619 0.907709,7.28963 0.372445,22.25 L 92.5,360.5 l -5.038412,0.29492 c -2.771126,0.16221 -5.358626,-0.0253 -5.75,-0.41667 z m 18.837952,-0.2981 c -1.172225,-1.89669 -0.614328,-41.29716 0.60556,-42.76704 1.35826,-1.63659 12.67184,-1.75804 19.87452,-0.21334 9.69727,2.0797 15.97038,10.53252 15.97038,21.51961 0,7.9307 -3.64439,15.45514 -9.29748,19.19618 -3.67446,2.43164 -5.09453,2.71436 -15.25379,3.03686 -7.59039,0.24095 -11.42687,-0.008 -11.89919,-0.77227 z m 20.35966,-11.4835 c 2.69452,-2.86819 4.13925,-8.52323 3.37719,-13.21925 -0.67246,-4.14393 -6.43844,-9.63964 -9.63559,-9.18395 -2.03073,0.28944 -2.16675,0.91707 -2.43652,11.24228 -0.15714,6.01466 -0.0588,11.52716 0.21862,12.25 0.84298,2.19678 6.01351,1.53244 8.4763,-1.08908 z M 255,293.11836 c -3.44056,-0.60786 -3.50522,-0.70994 -3.80721,-6.01115 -0.17348,-3.04532 0.17672,-5.87475 0.80453,-6.5 0.78526,-0.78206 16.88006,-1.10721 54.80721,-1.10721 53.13958,0 53.73688,-0.0224 57.69547,-2.16237 5.10347,-2.7589 9.67415,-7.62019 12.53979,-13.33708 l 2.25538,-4.49946 -0.65016,-64.50054 C 377.83588,114.72914 377.08365,83.603531 375.83266,78.631976 374.54515,73.515297 367.19383,65.755979 361.21376,63.201744 353.7252,60.003192 342.32447,59.264835 297.03411,59.04521 271.58763,58.921813 253.8331,58.44586 252.734,57.857639 c -1.48541,-0.794963 -1.77715,-1.968243 -1.53411,-6.16964 L 251.5,46.5 H 273 c 11.825,0 35.92468,0.225 53.55485,0.5 l 32.05484,0.5 7.64704,3.780848 c 6.32503,3.127216 8.78255,5.106339 14.21521,11.447968 4.39461,5.129897 7.0378,9.248563 7.98734,12.446008 1.61154,5.426648 2.01621,18.742315 3.62637,119.325176 1.03189,64.45995 1.01052,66.14629 -0.91574,72.26942 -3.3686,10.70802 -14.35566,20.91419 -26.75218,24.85082 L 356.92381,294 307.7119,293.86836 c -27.06654,-0.0724 -50.7869,-0.4099 -52.7119,-0.75 z M 71.255428,291.92069 C 55.291054,290.34748 43.948478,281.71592 35.879416,265 c -1.979292,-4.10032 -2.178567,-6.14314 -2.243612,-23 -0.06846,-17.74273 0.768857,-67.79983 2.260178,-135.11897 l 0.700455,-31.618976 3.173981,-6.381027 C 46.045128,56.266242 54.124288,49.736341 68.120131,45.967652 72.586306,44.765036 156.04059,44.6562 168.5,45.836743 l 7,0.663257 v 5 5 l -54,0.5 -54,0.5 -6.232418,4.382558 C 53.707263,67.19888 50.366648,71.386346 49.089621,77.147654 48.559024,79.541444 47.872006,98.825 47.562916,120 c -0.309091,21.175 -0.789908,46.6 -1.068483,56.5 -0.278576,9.9 -0.75374,29.44585 -1.055922,43.43522 -0.302181,13.98937 -0.730995,25.72901 -0.95292,26.08809 -0.725757,1.1743 1.702582,14.41497 3.113525,16.97669 2.640388,4.7939 7.939681,9.74732 13.400884,12.52622 l 5.5,2.79864 25,0.27429 c 13.75,0.15086 38.18306,0.30277 54.29569,0.33757 l 29.29569,0.0633 -0.29569,6.75 -0.29569,6.75 -48.5,0.018 c -26.675,0.01 -51.310057,-0.25888 -54.744572,-0.59734 z M 286.61781,237.44642 c -0.33979,-0.8855 -0.62032,-9.56069 -0.62339,-19.27821 -0.003,-9.71751 -0.46677,-19.32875 -1.03046,-21.35831 -1.32111,-4.75665 -7.30672,-9.54968 -14.22623,-11.39178 -2.88075,-0.76691 -9.58843,-1.39972 -14.90594,-1.40625 -5.31752,-0.007 -10.38002,-0.28501 -11.25,-0.61886 C 243.2628,182.88687 243,180.82133 243,170.9604 c 0,-10.47499 0.20398,-11.89037 1.78598,-12.39247 0.98228,-0.31177 6.26978,-0.52547 11.75,-0.4749 11.25243,0.10383 18.62661,-1.115 24.32046,-4.01979 4.81359,-2.45571 7.14356,-7.65659 7.14356,-15.94559 0,-7.37913 -2.62771,-11.58826 -9.57029,-15.32989 -4.97646,-2.68202 -5.17774,-2.70357 -26.89109,-2.87879 -20.36251,-0.16432 -21.97322,-0.0465 -23.26537,1.70224 -1.15635,1.56494 -1.32337,11.15012 -0.99981,57.37879 0.21365,30.525 0.18705,56.2875 -0.0591,57.25 -0.39947,1.56189 -1.95057,1.75 -14.42974,1.75 h -13.98216 l -2.8607,-3.06239 c -1.57339,-1.68432 -3.89143,-4.81713 -5.15121,-6.96181 -4.32447,-7.36208 -18.02254,-29.4794 -22.28114,-35.9758 -2.34352,-3.575 -6.5027,-10.325 -9.24262,-15 -14.15874,-24.15845 -16.43938,-27.84625 -18.21421,-29.45245 -4.68913,-4.24361 -4.94604,-1.97155 -5.44148,48.125 -0.21851,22.09491 -0.69695,40.65741 -1.0632,41.25 -1.07167,1.73401 -21.0225,1.41539 -22.49533,-0.35925 C 110.371,234.53715 111.69843,101.91503 113.42828,99.116079 113.86374,98.411455 117.9175,98 124.42416,98 c 12.29487,0 13.09906,0.449641 19.65055,10.98698 6.17575,9.93301 11.54054,18.40699 16.46855,26.01302 6.24927,9.64527 24.71364,38.89962 27.45576,43.5 3.53111,5.92403 9.06252,12.5 10.51445,12.5 0.69991,0 1.5457,-0.7118 1.87954,-1.58179 C 200.72686,188.54823 201,168.09979 201,143.97723 c 0,-32.62756 0.30226,-44.046002 1.18031,-44.588668 2.2741,-1.405471 68.64399,-0.579286 78.66705,0.979258 16.58213,2.57846 26.60532,9.44078 32.74477,22.41851 2.41197,5.09849 2.58956,6.3682 2.25519,16.12399 -0.42147,12.2972 -1.93479,15.74968 -11.37116,25.94209 -3.22357,3.48183 -5.47616,6.83061 -5.47616,8.14104 0,1.27396 2.12937,4.556 4.9784,7.67329 9.03125,9.88163 9.46714,11.54936 9.4963,36.33326 l 0.0253,21.5 -13.13219,0.2782 c -11.31486,0.23971 -13.21768,0.0554 -13.75,-1.33178 z"
       id="path3721"
       inkscape:connector-curvature="0" />
    <path
       style="fill:#f5110b"
       d="m 233.53312,359.91765 c -4.99473,-1.22954 -8.25433,-4.25459 -9.52906,-8.84339 -0.5461,-1.96584 -0.99542,-9.97819 -0.99848,-17.80521 -0.006,-14.18676 0.002,-14.23281 2.39271,-14.83288 1.31906,-0.33106 3.45656,-0.45213 4.75,-0.26905 2.33133,0.33 2.35604,0.47014 2.85171,16.17414 0.48515,15.37089 0.57355,15.90074 2.9769,17.84403 1.85334,1.49857 3.363,1.85896 5.99672,1.43157 C 247.54853,352.71217 248,351.31815 248,335.00887 248,319.55908 248.42759,318 252.66482,318 c 3.97616,0 4.66185,3.12071 4.08307,18.58292 -0.58433,15.61028 -1.51178,18.80996 -6.24789,21.55491 -3.80206,2.20359 -11.82609,3.04531 -16.96688,1.77982 z m 90.70712,-1.02777 c -6.67192,-3.30254 -10.24548,-9.863 -10.23466,-18.7891 0.008,-6.83072 1.72128,-11.79269 5.52444,-16.00233 7.95134,-8.80118 22.76959,-7.10001 27.816,3.19334 2.48521,5.06919 1.67727,6.70821 -3.30677,6.70821 -3.66882,0 -4.17917,-0.33058 -5.78925,-3.75 -1.59465,-3.38664 -2.1421,-3.75 -5.64995,-3.75 -5.99448,0 -8.03861,3.40872 -8.07304,13.46234 -0.0344,10.05456 2.03939,13.53766 8.06024,13.53766 3.2744,0 4.18302,-0.49618 5.89208,-3.21755 2.328,-3.70692 4.29578,-4.62798 7.93563,-3.71444 3.21113,0.80594 3.31316,3.06951 0.33504,7.4325 -4.69238,6.87438 -14.28858,8.95878 -22.50976,4.88937 z m 29.14003,0.65871 c -0.52595,-1.3706 8.83293,-35.05415 10.78008,-38.79859 0.67625,-1.30045 2.15395,-1.75 5.75239,-1.75 5.33117,0 6.401,0.81531 7.87306,6 0.54655,1.925 3.09218,10.20084 5.65694,18.39075 2.56477,8.18991 4.4285,15.50241 4.14162,16.25 C 386.33072,362.90768 378,360.17774 378,356.5 c 0,-2.98637 -3.06845,-4.5 -9.12246,-4.5 -5.96551,0 -5.98327,0.009 -7.54096,3.75 -0.85875,2.0625 -2.07329,4.08061 -2.69897,4.48469 -1.88833,1.21951 -4.66515,0.85713 -5.25734,-0.6861 z m 20.04346,-15.42518 C 374.35293,342.61994 371.01064,333 369.55908,333 367.96568,333 366,338.05312 366,342.14922 c 0,2.58205 0.32436,2.85078 3.44098,2.85078 1.89254,0 3.68478,-0.39447 3.98275,-0.87659 z M 83.812492,358.75 c -1.361946,-1.08451 -1.502166,-3.80319 -1.059148,-20.53545 0.461485,-17.42972 0.688394,-19.38059 2.358118,-20.2742 1.016125,-0.54382 2.981733,-0.70408 4.368019,-0.35614 L 92,318.21682 v 19.91634 19.91634 l -2.5651,0.97525 c -3.292248,1.25171 -3.732472,1.2302 -5.622408,-0.27475 z m 21.687508,0.4076 -4,-0.6576 -0.28455,-18 c -0.1565,-9.9 -0.0209,-19.07046 0.30138,-20.3788 0.57934,-2.35208 0.70178,-2.37364 10.90102,-1.92003 12.32222,0.54803 15.61901,2.07065 20.06943,9.26903 2.5085,4.05741 3.00516,5.89026 2.96753,10.95138 -0.0668,8.98077 -4.77026,16.86004 -11.61155,19.4516 -3.6629,1.38755 -13.51829,2.07764 -18.34326,1.28442 z m 14.53273,-7.67453 c 3.96746,-2.05165 5.97023,-6.31907 5.95253,-12.68341 -0.0168,-6.04861 -1.39934,-9.34064 -4.98526,-11.87085 -3.61882,-2.55342 -6.37238,-3.11493 -8.25569,-1.6835 -2.16926,1.64877 -3.64775,22.19808 -1.84012,25.57566 1.38539,2.58863 4.90885,2.84419 9.12854,0.6621 z m 23.99706,6.5726 C 142.95297,356.04361 142.69973,329.923 143.68265,322.25 l 0.54444,-4.25 10.63645,0.0761 c 12.48304,0.0893 16.81432,1.37502 19.88646,5.90325 3.17913,4.68595 2.927,9.18002 -0.75,13.36789 -3.66366,4.17267 -3.74431,6.72091 -0.44857,14.17315 1.40328,3.17307 2.3174,6.37906 2.03138,7.12443 -0.65714,1.71248 -7.00211,1.79294 -8.29687,0.1052 -0.52742,-0.6875 -2.00609,-3.95 -3.28594,-7.25 -2.98336,-7.69238 -3.65448,-8.5 -7.06343,-8.5 -3.68187,0 -4.34798,1.27422 -4.46843,8.54778 -0.0551,3.32627 -0.4345,6.58877 -0.84316,7.25 -1.21201,1.96107 -6.42087,1.45212 -7.59519,-0.74211 z m 21.43703,-23.02813 c 0.84325,-0.69984 1.53318,-2.7765 1.53318,-4.6148 0,-4.20934 -2.38837,-5.62761 -8.78404,-5.21614 L 153.5,325.5 l -0.31309,4.3644 c -0.48725,6.79221 0.0738,7.4611 5.79673,6.91119 2.7225,-0.26159 5.63993,-1.04822 6.48318,-1.74805 z m 17.17117,24.19574 c -0.63001,-1.01938 11.03826,-38.07225 12.58793,-39.97328 1.38333,-1.69698 9.2405,-1.59785 10.6784,0.13471 2.00069,2.41069 12.31894,38.79203 11.29294,39.81803 -0.51862,0.51862 -2.43568,0.79767 -4.26014,0.6201 -2.72004,-0.26472 -3.68878,-1.04291 -5.38134,-4.32284 -2.03442,-3.9424 -2.15264,-4.00425 -8.21014,-4.29513 l -6.146,-0.29512 -2.36281,4.29512 c -1.72588,3.13733 -3.07514,4.37797 -5.00538,4.60244 -1.45342,0.16902 -2.89047,-0.0938 -3.19346,-0.58403 z m 19.80594,-15.55862 c 1.74833,-1.27841 1.75305,-1.55552 0.11076,-6.5 C 201.61121,334.3241 200.24929,332 199.52821,332 198.11423,332 195,338.83399 195,341.9369 c 0,3.03233 4.29615,4.02947 7.44393,1.72776 z m 63.16306,14.75355 C 265.27314,357.54823 265,348.63823 265,338.61821 c 0,-19.07673 0.33627,-20.63363 4.45,-20.6029 4.7409,0.0354 5.00463,0.93677 5.02799,17.18462 0.0121,8.41504 0.38607,15.86257 0.83103,16.55007 0.52751,0.81505 3.39154,1.25 8.23094,1.25 7.0367,0 7.45376,0.12681 8.03513,2.44316 0.33726,1.34375 0.31927,2.91875 -0.04,3.5 -0.40174,0.65002 -5.40098,1.05684 -12.98716,1.05684 -10.3245,0 -12.43289,-0.25771 -12.94098,-1.58179 z M 297.4845,357.75 c -0.30448,-1.2375 -0.42555,-10.30147 -0.26905,-20.14216 0.30984,-19.48232 0.66141,-20.60851 6.01415,-19.26506 l 2.53916,0.63729 0.3941,17.1874 c 0.21676,9.45307 0.21956,18.68256 0.006,20.50997 -0.36477,3.12449 -0.61869,3.32256 -4.25943,3.32256 -3.18424,0 -3.96983,-0.39944 -4.42515,-2.25 z M 42.25,358.33772 c -1.459051,-0.58874 -1.811266,-36.90416 -0.379823,-39.1619 0.504912,-0.79637 2.192832,-1.19497 4.234688,-1 L 49.5,318.5 l 0.283363,7 c 0.320377,7.91433 1.48434,9.5 6.973508,9.5 6.100448,0 7.241236,-1.30216 7.258442,-8.28518 0.01948,-7.9076 0.691909,-8.93481 5.586473,-8.53402 L 73.5,318.5 73.15789,338 c -0.18816,10.725 -0.693439,19.87028 -1.122842,20.32284 -0.429403,0.45257 -2.300454,0.67757 -4.15789,0.5 L 64.5,358.5 l -0.5,-8 -0.5,-8 -6.408942,-0.30184 c -4.450638,-0.20962 -6.661256,0.0959 -7.234687,1 -0.45416,0.71601 -0.832636,4.2912 -0.841058,7.94485 -0.01181,5.12531 -0.376697,6.78169 -1.5971,7.25 -1.800141,0.69078 -3.360629,0.67409 -5.168213,-0.0553 z M 255,293.11836 c -3.44056,-0.60786 -3.50522,-0.70994 -3.80721,-6.01115 -0.17348,-3.04532 0.17672,-5.87475 0.80453,-6.5 0.78526,-0.78206 16.88006,-1.10721 54.80721,-1.10721 53.13958,0 53.73688,-0.0224 57.69547,-2.16237 5.10347,-2.7589 9.67415,-7.62019 12.53979,-13.33708 l 2.25538,-4.49946 -0.65016,-64.50054 C 377.83588,114.72914 377.08365,83.603531 375.83266,78.631976 374.54515,73.515297 367.19383,65.755979 361.21376,63.201744 353.7252,60.003192 342.32447,59.264835 297.03411,59.04521 271.58763,58.921813 253.8331,58.44586 252.734,57.857639 c -1.48541,-0.794963 -1.77715,-1.968243 -1.53411,-6.16964 L 251.5,46.5 H 273 c 11.825,0 35.92468,0.225 53.55485,0.5 l 32.05484,0.5 7.64704,3.780848 c 6.32503,3.127216 8.78255,5.106339 14.21521,11.447968 4.39461,5.129897 7.0378,9.248563 7.98734,12.446008 1.61154,5.426648 2.01621,18.742315 3.62637,119.325176 1.03189,64.45995 1.01052,66.14629 -0.91574,72.26942 -3.3686,10.70802 -14.35566,20.91419 -26.75218,24.85082 L 356.92381,294 307.7119,293.86836 c -27.06654,-0.0724 -50.7869,-0.4099 -52.7119,-0.75 z M 71.255428,291.92069 C 55.291054,290.34748 43.948478,281.71592 35.879416,265 c -1.979292,-4.10032 -2.178567,-6.14314 -2.243612,-23 -0.06846,-17.74273 0.768857,-67.79983 2.260178,-135.11897 l 0.700455,-31.618976 3.173981,-6.381027 C 46.045128,56.266242 54.124288,49.736341 68.120131,45.967652 72.586306,44.765036 156.04059,44.6562 168.5,45.836743 l 7,0.663257 v 5 5 l -54,0.5 -54,0.5 -6.232418,4.382558 C 53.707263,67.19888 50.366648,71.386346 49.089621,77.147654 48.559024,79.541444 47.872006,98.825 47.562916,120 c -0.309091,21.175 -0.789908,46.6 -1.068483,56.5 -0.278576,9.9 -0.75374,29.44585 -1.055922,43.43522 -0.302181,13.98937 -0.730995,25.72901 -0.95292,26.08809 -0.725757,1.1743 1.702582,14.41497 3.113525,16.97669 2.640388,4.7939 7.939681,9.74732 13.400884,12.52622 l 5.5,2.79864 25,0.27429 c 13.75,0.15086 38.18306,0.30277 54.29569,0.33757 l 29.29569,0.0633 -0.29569,6.75 -0.29569,6.75 -48.5,0.018 c -26.675,0.01 -51.310057,-0.25888 -54.744572,-0.59734 z M 286.61781,237.44642 c -0.33979,-0.8855 -0.62032,-9.56069 -0.62339,-19.27821 -0.003,-9.71751 -0.46677,-19.32875 -1.03046,-21.35831 -1.32111,-4.75665 -7.30672,-9.54968 -14.22623,-11.39178 -2.88075,-0.76691 -9.58843,-1.39972 -14.90594,-1.40625 -5.31752,-0.007 -10.38002,-0.28501 -11.25,-0.61886 C 243.2628,182.88687 243,180.82133 243,170.9604 c 0,-10.47499 0.20398,-11.89037 1.78598,-12.39247 0.98228,-0.31177 6.26978,-0.52547 11.75,-0.4749 11.25243,0.10383 18.62661,-1.115 24.32046,-4.01979 4.81359,-2.45571 7.14356,-7.65659 7.14356,-15.94559 0,-7.37913 -2.62771,-11.58826 -9.57029,-15.32989 -4.97646,-2.68202 -5.17774,-2.70357 -26.89109,-2.87879 -20.36251,-0.16432 -21.97322,-0.0465 -23.26537,1.70224 -1.15635,1.56494 -1.32337,11.15012 -0.99981,57.37879 0.21365,30.525 0.18705,56.2875 -0.0591,57.25 -0.39947,1.56189 -1.95057,1.75 -14.42974,1.75 h -13.98216 l -2.8607,-3.06239 c -1.57339,-1.68432 -3.89143,-4.81713 -5.15121,-6.96181 -4.32447,-7.36208 -18.02254,-29.4794 -22.28114,-35.9758 -2.34352,-3.575 -6.5027,-10.325 -9.24262,-15 -14.15874,-24.15845 -16.43938,-27.84625 -18.21421,-29.45245 -4.68913,-4.24361 -4.94604,-1.97155 -5.44148,48.125 -0.21851,22.09491 -0.69695,40.65741 -1.0632,41.25 -1.07167,1.73401 -21.0225,1.41539 -22.49533,-0.35925 C 110.371,234.53715 111.69843,101.91503 113.42828,99.116079 113.86374,98.411455 117.9175,98 124.42416,98 c 12.29487,0 13.09906,0.449641 19.65055,10.98698 6.17575,9.93301 11.54054,18.40699 16.46855,26.01302 6.24927,9.64527 24.71364,38.89962 27.45576,43.5 3.53111,5.92403 9.06252,12.5 10.51445,12.5 0.69991,0 1.5457,-0.7118 1.87954,-1.58179 C 200.72686,188.54823 201,168.09979 201,143.97723 c 0,-32.62756 0.30226,-44.046002 1.18031,-44.588668 2.2741,-1.405471 68.64399,-0.579286 78.66705,0.979258 16.58213,2.57846 26.60532,9.44078 32.74477,22.41851 2.41197,5.09849 2.58956,6.3682 2.25519,16.12399 -0.42147,12.2972 -1.93479,15.74968 -11.37116,25.94209 -3.22357,3.48183 -5.47616,6.83061 -5.47616,8.14104 0,1.27396 2.12937,4.556 4.9784,7.67329 9.03125,9.88163 9.46714,11.54936 9.4963,36.33326 l 0.0253,21.5 -13.13219,0.2782 c -11.31486,0.23971 -13.21768,0.0554 -13.75,-1.33178 z"
       id="path3719"
       inkscape:connector-curvature="0" />
    <path
       style="fill:#0d1d1a"
       d="m 233.53312,359.91765 c -4.99473,-1.22954 -8.25433,-4.25459 -9.52906,-8.84339 -0.5461,-1.96584 -0.99542,-9.97819 -0.99848,-17.80521 -0.006,-14.18676 0.002,-14.23281 2.39271,-14.83288 1.31906,-0.33106 3.45656,-0.45213 4.75,-0.26905 2.33133,0.33 2.35604,0.47014 2.85171,16.17414 0.48515,15.37089 0.57355,15.90074 2.9769,17.84403 1.85334,1.49857 3.363,1.85896 5.99672,1.43157 C 247.54853,352.71217 248,351.31815 248,335.00887 248,319.55908 248.42759,318 252.66482,318 c 3.97616,0 4.66185,3.12071 4.08307,18.58292 -0.58433,15.61028 -1.51178,18.80996 -6.24789,21.55491 -3.80206,2.20359 -11.82609,3.04531 -16.96688,1.77982 z m 90.70712,-1.02777 c -6.67192,-3.30254 -10.24548,-9.863 -10.23466,-18.7891 0.008,-6.83072 1.72128,-11.79269 5.52444,-16.00233 7.95134,-8.80118 22.76959,-7.10001 27.816,3.19334 2.48521,5.06919 1.67727,6.70821 -3.30677,6.70821 -3.66882,0 -4.17917,-0.33058 -5.78925,-3.75 -1.59465,-3.38664 -2.1421,-3.75 -5.64995,-3.75 -5.99448,0 -8.03861,3.40872 -8.07304,13.46234 -0.0344,10.05456 2.03939,13.53766 8.06024,13.53766 3.2744,0 4.18302,-0.49618 5.89208,-3.21755 2.328,-3.70692 4.29578,-4.62798 7.93563,-3.71444 3.21113,0.80594 3.31316,3.06951 0.33504,7.4325 -4.69238,6.87438 -14.28858,8.95878 -22.50976,4.88937 z m 29.14003,0.65871 c -0.52595,-1.3706 8.83293,-35.05415 10.78008,-38.79859 0.67625,-1.30045 2.15395,-1.75 5.75239,-1.75 5.33117,0 6.401,0.81531 7.87306,6 0.54655,1.925 3.09218,10.20084 5.65694,18.39075 2.56477,8.18991 4.4285,15.50241 4.14162,16.25 C 386.33072,362.90768 378,360.17774 378,356.5 c 0,-2.98637 -3.06845,-4.5 -9.12246,-4.5 -5.96551,0 -5.98327,0.009 -7.54096,3.75 -0.85875,2.0625 -2.07329,4.08061 -2.69897,4.48469 -1.88833,1.21951 -4.66515,0.85713 -5.25734,-0.6861 z m 20.04346,-15.42518 C 374.35293,342.61994 371.01064,333 369.55908,333 367.96568,333 366,338.05312 366,342.14922 c 0,2.58205 0.32436,2.85078 3.44098,2.85078 1.89254,0 3.68478,-0.39447 3.98275,-0.87659 z M 83.812492,358.75 c -1.361946,-1.08451 -1.502166,-3.80319 -1.059148,-20.53545 0.461485,-17.42972 0.688394,-19.38059 2.358118,-20.2742 1.016125,-0.54382 2.981733,-0.70408 4.368019,-0.35614 L 92,318.21682 v 19.91634 19.91634 l -2.5651,0.97525 c -3.292248,1.25171 -3.732472,1.2302 -5.622408,-0.27475 z m 21.687508,0.4076 -4,-0.6576 -0.28455,-18 c -0.1565,-9.9 -0.0209,-19.07046 0.30138,-20.3788 0.57934,-2.35208 0.70178,-2.37364 10.90102,-1.92003 12.32222,0.54803 15.61901,2.07065 20.06943,9.26903 2.5085,4.05741 3.00516,5.89026 2.96753,10.95138 -0.0668,8.98077 -4.77026,16.86004 -11.61155,19.4516 -3.6629,1.38755 -13.51829,2.07764 -18.34326,1.28442 z m 14.53273,-7.67453 c 3.96746,-2.05165 5.97023,-6.31907 5.95253,-12.68341 -0.0168,-6.04861 -1.39934,-9.34064 -4.98526,-11.87085 -3.61882,-2.55342 -6.37238,-3.11493 -8.25569,-1.6835 -2.16926,1.64877 -3.64775,22.19808 -1.84012,25.57566 1.38539,2.58863 4.90885,2.84419 9.12854,0.6621 z m 23.99706,6.5726 C 142.95297,356.04361 142.69973,329.923 143.68265,322.25 l 0.54444,-4.25 10.63645,0.0761 c 12.48304,0.0893 16.81432,1.37502 19.88646,5.90325 3.17913,4.68595 2.927,9.18002 -0.75,13.36789 -3.66366,4.17267 -3.74431,6.72091 -0.44857,14.17315 1.40328,3.17307 2.3174,6.37906 2.03138,7.12443 -0.65714,1.71248 -7.00211,1.79294 -8.29687,0.1052 -0.52742,-0.6875 -2.00609,-3.95 -3.28594,-7.25 -2.98336,-7.69238 -3.65448,-8.5 -7.06343,-8.5 -3.68187,0 -4.34798,1.27422 -4.46843,8.54778 -0.0551,3.32627 -0.4345,6.58877 -0.84316,7.25 -1.21201,1.96107 -6.42087,1.45212 -7.59519,-0.74211 z m 21.43703,-23.02813 c 0.84325,-0.69984 1.53318,-2.7765 1.53318,-4.6148 0,-4.20934 -2.38837,-5.62761 -8.78404,-5.21614 L 153.5,325.5 l -0.31309,4.3644 c -0.48725,6.79221 0.0738,7.4611 5.79673,6.91119 2.7225,-0.26159 5.63993,-1.04822 6.48318,-1.74805 z m 17.17117,24.19574 c -0.63001,-1.01938 11.03826,-38.07225 12.58793,-39.97328 1.38333,-1.69698 9.2405,-1.59785 10.6784,0.13471 2.00069,2.41069 12.31894,38.79203 11.29294,39.81803 -0.51862,0.51862 -2.43568,0.79767 -4.26014,0.6201 -2.72004,-0.26472 -3.68878,-1.04291 -5.38134,-4.32284 -2.03442,-3.9424 -2.15264,-4.00425 -8.21014,-4.29513 l -6.146,-0.29512 -2.36281,4.29512 c -1.72588,3.13733 -3.07514,4.37797 -5.00538,4.60244 -1.45342,0.16902 -2.89047,-0.0938 -3.19346,-0.58403 z m 19.80594,-15.55862 c 1.74833,-1.27841 1.75305,-1.55552 0.11076,-6.5 C 201.61121,334.3241 200.24929,332 199.52821,332 198.11423,332 195,338.83399 195,341.9369 c 0,3.03233 4.29615,4.02947 7.44393,1.72776 z m 63.16306,14.75355 C 265.27314,357.54823 265,348.63823 265,338.61821 c 0,-19.07673 0.33627,-20.63363 4.45,-20.6029 4.7409,0.0354 5.00463,0.93677 5.02799,17.18462 0.0121,8.41504 0.38607,15.86257 0.83103,16.55007 0.52751,0.81505 3.39154,1.25 8.23094,1.25 7.0367,0 7.45376,0.12681 8.03513,2.44316 0.33726,1.34375 0.31927,2.91875 -0.04,3.5 -0.40174,0.65002 -5.40098,1.05684 -12.98716,1.05684 -10.3245,0 -12.43289,-0.25771 -12.94098,-1.58179 z M 297.4845,357.75 c -0.30448,-1.2375 -0.42555,-10.30147 -0.26905,-20.14216 0.30984,-19.48232 0.66141,-20.60851 6.01415,-19.26506 l 2.53916,0.63729 0.3941,17.1874 c 0.21676,9.45307 0.21956,18.68256 0.006,20.50997 -0.36477,3.12449 -0.61869,3.32256 -4.25943,3.32256 -3.18424,0 -3.96983,-0.39944 -4.42515,-2.25 z M 42.25,358.33772 c -1.459051,-0.58874 -1.811266,-36.90416 -0.379823,-39.1619 0.504912,-0.79637 2.192832,-1.19497 4.234688,-1 L 49.5,318.5 l 0.283363,7 c 0.320377,7.91433 1.48434,9.5 6.973508,9.5 6.100448,0 7.241236,-1.30216 7.258442,-8.28518 0.01948,-7.9076 0.691909,-8.93481 5.586473,-8.53402 L 73.5,318.5 73.15789,338 c -0.18816,10.725 -0.693439,19.87028 -1.122842,20.32284 -0.429403,0.45257 -2.300454,0.67757 -4.15789,0.5 L 64.5,358.5 l -0.5,-8 -0.5,-8 -6.408942,-0.30184 c -4.450638,-0.20962 -6.661256,0.0959 -7.234687,1 -0.45416,0.71601 -0.832636,4.2912 -0.841058,7.94485 -0.01181,5.12531 -0.376697,6.78169 -1.5971,7.25 -1.800141,0.69078 -3.360629,0.67409 -5.168213,-0.0553 z"
       id="path3717"
       inkscape:connector-curvature="0" />
  </g>
</svg>
